<svg width="128" height="128" xmlns="http://www.w3.org/2000/svg"><path d="M44 56a16 16 0 1 0 0-32 16 16 0 0 0 0 32zm0-24a8 8 0 1 1 0 16 8 8 0 0 1 0-16z"/><path d="M84 56a16 16 0 1 0 0-32 16 16 0 0 0 0 32zm0-24a8 8 0 1 1 0 16 8 8 0 0 1 0-16z"/><path d="M104 72a16 16 0 1 0 0-32 16 16 0 0 0 0 32zm0-24a8 8 0 1 1 0 16 8 8 0 0 1 0-16z"/><path d="M24 72a16 16 0 1 0 0-32 16 16 0 0 0 0 32zm0-24a8 8 0 1 1 0 16 8 8 0 0 1 0-16z"/><path d="M94.4 82.4C88 78.4 80 76 64 76s-24 2.4-30.4 6.4C24 88 16 96 16 112v8h96v-8c0-16-8-24-17.6-29.6zM32 112c0-8 4-12 9.6-15.2C46.4 94 52 92 64 92s17.6 2 22.4 4.8C92 100 96 104 96 112H32z"/></svg>