<?xml version="1.0" standalone="no"?><!DOCTYPE svg PUBLIC "-//W3C//DTD SVG 1.1//EN" "http://www.w3.org/Graphics/SVG/1.1/DTD/svg11.dtd"><svg class="icon" viewBox="0 0 1024 1024" version="1.1" xmlns="http://www.w3.org/2000/svg" width="200" height="200"><path d="M768 128h-99.2c-14.933-37.333-51.2-64-94.933-64h-123.734c-43.733 0-80 26.667-94.933 64H256c-35.2 0-64 28.8-64 64v672c0 35.2 28.8 64 64 64h512c35.2 0 64-28.8 64-64V192c0-35.2-28.8-64-64-64z m-317.867 0h123.734c14.933 0 26.667 11.733 26.667 26.667v32H423.466v-32c0-14.934 11.734-26.667 26.667-26.667zM768 864H256V192h99.2v32c0 17.6 14.4 32 32 32h183.466c17.6 0 32-14.4 32-32V192H768v672z M416 448H320c-17.6 0-32 14.4-32 32s14.4 32 32 32h96c17.6 0 32-14.4 32-32s-14.4-32-32-32z M416 640H320c-17.6 0-32 14.4-32 32s14.4 32 32 32h96c17.6 0 32-14.4 32-32s-14.4-32-32-32z M620.8 441.6l-82.133 82.134-28.8-28.8c-12.8-12.8-32-12.8-44.8 0s-12.8 32 0 44.8l51.2 51.2c6.4 6.4 14.4 9.6 22.4 9.6s16-3.2 22.4-9.6l104.533-104.534c12.8-12.8 12.8-32 0-44.8s-33.067-12.8-45.867 0z"></path></svg>
