<?xml version="1.0" standalone="no"?><!DOCTYPE svg PUBLIC "-//W3C//DTD SVG 1.1//EN" "http://www.w3.org/Graphics/SVG/1.1/DTD/svg11.dtd"><svg class="icon" viewBox="0 0 1024 1024" version="1.1" xmlns="http://www.w3.org/2000/svg" width="200" height="200"><path d="M512 320c-105.6 0-192 86.4-192 192s86.4 192 192 192 192-86.4 192-192-86.4-192-192-192z m0 320c-70.4 0-128-57.6-128-128s57.6-128 128-128 128 57.6 128 128-57.6 128-128 128z M931.2 588.8l-65.6-38.4c6.4-25.6 9.6-51.2 9.6-76.8s-3.2-51.2-9.6-76.8l65.6-38.4c16-9.6 22.4-28.8 12.8-44.8l-73.6-128c-9.6-16-28.8-22.4-44.8-12.8l-65.6 38.4c-38.4-35.2-86.4-60.8-137.6-73.6V92.8c0-19.2-12.8-32-32-32h-147.2c-19.2 0-32 12.8-32 32v76.8c-51.2 12.8-99.2 38.4-137.6 73.6l-65.6-38.4c-16-9.6-35.2-3.2-44.8 12.8l-73.6 128c-9.6 16-3.2 35.2 12.8 44.8l65.6 38.4c-6.4 25.6-9.6 51.2-9.6 76.8s3.2 51.2 9.6 76.8l-65.6 38.4c-16 9.6-22.4 28.8-12.8 44.8l73.6 128c9.6 16 28.8 22.4 44.8 12.8l65.6-38.4c38.4 35.2 86.4 60.8 137.6 73.6v76.8c0 19.2 12.8 32 32 32h147.2c19.2 0 32-12.8 32-32v-76.8c51.2-12.8 99.2-38.4 137.6-73.6l65.6 38.4c16 9.6 35.2 3.2 44.8-12.8l73.6-128c9.6-16 3.2-35.2-12.8-44.8z m-57.6 147.2l-57.6-33.6c-12.8-6.4-28.8-6.4-38.4 3.2-35.2 38.4-80 67.2-131.2 80-12.8 3.2-22.4 16-22.4 32v67.2h-83.2v-67.2c0-16-9.6-28.8-22.4-32-51.2-12.8-96-41.6-131.2-80-9.6-9.6-25.6-12.8-38.4-3.2l-57.6 33.6-41.6-73.6 57.6-33.6c12.8-9.6 19.2-25.6 16-41.6-6.4-25.6-9.6-51.2-9.6-73.6s3.2-48 9.6-73.6c3.2-16-3.2-32-16-41.6l-57.6-33.6 41.6-73.6 57.6 33.6c12.8 6.4 28.8 6.4 38.4-3.2 35.2-38.4 80-67.2 131.2-80 12.8-3.2 22.4-16 22.4-32V156.8h83.2v67.2c0 16 9.6 28.8 22.4 32 51.2 12.8 96 41.6 131.2 80 9.6 9.6 25.6 12.8 38.4 3.2l57.6-33.6 41.6 73.6-57.6 33.6c-12.8 9.6-19.2 25.6-16 41.6 6.4 25.6 9.6 51.2 9.6 73.6s-3.2 48-9.6 73.6c-3.2 16 3.2 32 16 41.6l57.6 33.6-41.6 73.6z"></path></svg>
