<svg width="128" height="128" xmlns="http://www.w3.org/2000/svg"><path d="M88 32H16a8 8 0 0 1 0-16h72a8 8 0 0 1 0 16z"/><path d="M88 32a8 8 0 0 1-5.657-13.657l16-16a8 8 0 0 1 11.314 11.314l-16 16A7.976 7.976 0 0 1 88 32z"/><path d="M104 48a7.976 7.976 0 0 1-5.657-2.343l-16-16a8 8 0 0 1 11.314-11.314l16 16A8 8 0 0 1 104 48z"/><path d="M40 112H112a8 8 0 0 0 0-16H40a8 8 0 0 0 0 16z"/><path d="M40 112a7.976 7.976 0 0 0 5.657-2.343l16-16a8 8 0 0 0-11.314-11.314l-16 16A8 8 0 0 0 40 112z"/><path d="M24 96a7.976 7.976 0 0 0 5.657 2.343l16-16a8 8 0 0 0-11.314-11.314l-16 16A8 8 0 0 0 24 96z"/></svg>