<?xml version="1.0" standalone="no"?><!DOCTYPE svg PUBLIC "-//W3C//DTD SVG 1.1//EN" "http://www.w3.org/Graphics/SVG/1.1/DTD/svg11.dtd"><svg class="icon" viewBox="0 0 1024 1024" version="1.1" xmlns="http://www.w3.org/2000/svg" width="200" height="200"><path d="M512 928C282.3 928 96 741.7 96 512S282.3 96 512 96s416 186.3 416 416-186.3 416-416 416z m0-768c-194.4 0-352 157.6-352 352s157.6 352 352 352 352-157.6 352-352-157.6-352-352-352z M512 640c-22.1 0-40 17.9-40 40v8c0 22.1 17.9 40 40 40s40-17.9 40-40v-8c0-22.1-17.9-40-40-40z M512 288c-22.1 0-40 17.9-40 40v208c0 22.1 17.9 40 40 40s40-17.9 40-40V328c0-22.1-17.9-40-40-40z"></path></svg>
